<mxfile host="app.diagrams.net" agent="Mozilla/5.0 (Windows NT 10.0; Win64; x64) AppleWebKit/537.36 (KHTML, like Gecko) Chrome/133.0.0.0 Safari/537.36 Edg/133.0.0.0" version="26.0.16">
  <diagram name="Page-1" id="kURHY2Cv-Gzh8LxqKZ6i">
    <mxGraphModel dx="3137" dy="1921" grid="1" gridSize="10" guides="1" tooltips="1" connect="1" arrows="1" fold="1" page="1" pageScale="1" pageWidth="1169" pageHeight="827" math="0" shadow="0">
      <root>
        <mxCell id="0" />
        <mxCell id="1" parent="0" />
        <mxCell id="az1jpNIogjLivmSvD074-1" value="Node.js" style="whiteSpace=wrap;strokeWidth=2;" vertex="1" parent="1">
          <mxGeometry x="4133" y="-140" width="115" height="54" as="geometry" />
        </mxCell>
        <mxCell id="az1jpNIogjLivmSvD074-2" value="基础概念" style="whiteSpace=wrap;strokeWidth=2;" vertex="1" parent="1">
          <mxGeometry x="-210" y="-36" width="124" height="54" as="geometry" />
        </mxCell>
        <mxCell id="az1jpNIogjLivmSvD074-3" value="核心模块" style="whiteSpace=wrap;strokeWidth=2;" vertex="1" parent="1">
          <mxGeometry x="875" y="-36" width="124" height="54" as="geometry" />
        </mxCell>
        <mxCell id="az1jpNIogjLivmSvD074-4" value="异步编程" style="whiteSpace=wrap;strokeWidth=2;" vertex="1" parent="1">
          <mxGeometry x="2155" y="-36" width="124" height="54" as="geometry" />
        </mxCell>
        <mxCell id="az1jpNIogjLivmSvD074-5" value="模块系统" style="whiteSpace=wrap;strokeWidth=2;" vertex="1" parent="1">
          <mxGeometry x="3502" y="-36" width="124" height="54" as="geometry" />
        </mxCell>
        <mxCell id="az1jpNIogjLivmSvD074-6" value="框架与应用" style="whiteSpace=wrap;strokeWidth=2;" vertex="1" parent="1">
          <mxGeometry x="4785" y="-36" width="140" height="54" as="geometry" />
        </mxCell>
        <mxCell id="az1jpNIogjLivmSvD074-7" value="性能优化" style="whiteSpace=wrap;strokeWidth=2;" vertex="1" parent="1">
          <mxGeometry x="5848" y="-36" width="124" height="54" as="geometry" />
        </mxCell>
        <mxCell id="az1jpNIogjLivmSvD074-8" value="部署" style="whiteSpace=wrap;strokeWidth=2;" vertex="1" parent="1">
          <mxGeometry x="6586" y="-36" width="92" height="54" as="geometry" />
        </mxCell>
        <mxCell id="az1jpNIogjLivmSvD074-9" value="安全" style="whiteSpace=wrap;strokeWidth=2;" vertex="1" parent="1">
          <mxGeometry x="7290" y="-36" width="92" height="54" as="geometry" />
        </mxCell>
        <mxCell id="az1jpNIogjLivmSvD074-10" value="基于Chrome V8引擎的JavaScript运行时" style="whiteSpace=wrap;strokeWidth=2;" vertex="1" parent="1">
          <mxGeometry x="-580" y="68" width="260" height="78" as="geometry" />
        </mxCell>
        <mxCell id="az1jpNIogjLivmSvD074-11" value="事件驱动、非阻塞I/O模型" style="whiteSpace=wrap;strokeWidth=2;" vertex="1" parent="1">
          <mxGeometry x="-270" y="80" width="244" height="54" as="geometry" />
        </mxCell>
        <mxCell id="az1jpNIogjLivmSvD074-12" value="单线程但可利用多核" style="whiteSpace=wrap;strokeWidth=2;" vertex="1" parent="1">
          <mxGeometry x="24" y="80" width="204" height="54" as="geometry" />
        </mxCell>
        <mxCell id="az1jpNIogjLivmSvD074-13" value="HTTP" style="whiteSpace=wrap;strokeWidth=2;" vertex="1" parent="1">
          <mxGeometry x="278" y="80" width="98" height="54" as="geometry" />
        </mxCell>
        <mxCell id="az1jpNIogjLivmSvD074-14" value="FS" style="whiteSpace=wrap;strokeWidth=2;" vertex="1" parent="1">
          <mxGeometry x="713" y="80" width="76" height="54" as="geometry" />
        </mxCell>
        <mxCell id="az1jpNIogjLivmSvD074-15" value="Path" style="whiteSpace=wrap;strokeWidth=2;" vertex="1" parent="1">
          <mxGeometry x="1077" y="80" width="92" height="54" as="geometry" />
        </mxCell>
        <mxCell id="az1jpNIogjLivmSvD074-16" value="Events" style="whiteSpace=wrap;strokeWidth=2;" vertex="1" parent="1">
          <mxGeometry x="1469" y="80" width="107" height="54" as="geometry" />
        </mxCell>
        <mxCell id="az1jpNIogjLivmSvD074-17" value="创建服务器" style="whiteSpace=wrap;strokeWidth=2;" vertex="1" parent="1">
          <mxGeometry x="154" y="208" width="140" height="54" as="geometry" />
        </mxCell>
        <mxCell id="az1jpNIogjLivmSvD074-18" value="处理请求与响应" style="whiteSpace=wrap;strokeWidth=2;" vertex="1" parent="1">
          <mxGeometry x="344" y="208" width="172" height="54" as="geometry" />
        </mxCell>
        <mxCell id="az1jpNIogjLivmSvD074-19" value="文件读取与写入" style="whiteSpace=wrap;strokeWidth=2;" vertex="1" parent="1">
          <mxGeometry x="566" y="208" width="172" height="54" as="geometry" />
        </mxCell>
        <mxCell id="az1jpNIogjLivmSvD074-20" value="目录操作" style="whiteSpace=wrap;strokeWidth=2;" vertex="1" parent="1">
          <mxGeometry x="788" y="208" width="124" height="54" as="geometry" />
        </mxCell>
        <mxCell id="az1jpNIogjLivmSvD074-21" value="路径处理" style="whiteSpace=wrap;strokeWidth=2;" vertex="1" parent="1">
          <mxGeometry x="962" y="208" width="124" height="54" as="geometry" />
        </mxCell>
        <mxCell id="az1jpNIogjLivmSvD074-22" value="拼接、解析路径" style="whiteSpace=wrap;strokeWidth=2;" vertex="1" parent="1">
          <mxGeometry x="1136" y="208" width="172" height="54" as="geometry" />
        </mxCell>
        <mxCell id="az1jpNIogjLivmSvD074-23" value="事件发射器" style="whiteSpace=wrap;strokeWidth=2;" vertex="1" parent="1">
          <mxGeometry x="1358" y="208" width="140" height="54" as="geometry" />
        </mxCell>
        <mxCell id="az1jpNIogjLivmSvD074-24" value="自定义事件" style="whiteSpace=wrap;strokeWidth=2;" vertex="1" parent="1">
          <mxGeometry x="1548" y="208" width="140" height="54" as="geometry" />
        </mxCell>
        <mxCell id="az1jpNIogjLivmSvD074-25" value="回调函数" style="whiteSpace=wrap;strokeWidth=2;" vertex="1" parent="1">
          <mxGeometry x="1754" y="80" width="124" height="54" as="geometry" />
        </mxCell>
        <mxCell id="az1jpNIogjLivmSvD074-26" value="Promise" style="whiteSpace=wrap;strokeWidth=2;" vertex="1" parent="1">
          <mxGeometry x="2159" y="80" width="116" height="54" as="geometry" />
        </mxCell>
        <mxCell id="az1jpNIogjLivmSvD074-27" value="Async/Await" style="whiteSpace=wrap;strokeWidth=2;" vertex="1" parent="1">
          <mxGeometry x="2675" y="80" width="149" height="54" as="geometry" />
        </mxCell>
        <mxCell id="az1jpNIogjLivmSvD074-28" value="回调地狱问题" style="whiteSpace=wrap;strokeWidth=2;" vertex="1" parent="1">
          <mxGeometry x="1738" y="208" width="156" height="54" as="geometry" />
        </mxCell>
        <mxCell id="az1jpNIogjLivmSvD074-29" value="状态：pending、fulfilled、rejected" style="whiteSpace=wrap;strokeWidth=2;" vertex="1" parent="1">
          <mxGeometry x="1944" y="196" width="260" height="78" as="geometry" />
        </mxCell>
        <mxCell id="az1jpNIogjLivmSvD074-30" value="方法：then、catch等" style="whiteSpace=wrap;strokeWidth=2;" vertex="1" parent="1">
          <mxGeometry x="2254" y="208" width="212" height="54" as="geometry" />
        </mxCell>
        <mxCell id="az1jpNIogjLivmSvD074-31" value="异步函数的同步写法" style="whiteSpace=wrap;strokeWidth=2;" vertex="1" parent="1">
          <mxGeometry x="2516" y="208" width="204" height="54" as="geometry" />
        </mxCell>
        <mxCell id="az1jpNIogjLivmSvD074-32" value="配合try/catch处理错误" style="whiteSpace=wrap;strokeWidth=2;" vertex="1" parent="1">
          <mxGeometry x="2770" y="208" width="224" height="54" as="geometry" />
        </mxCell>
        <mxCell id="az1jpNIogjLivmSvD074-33" value="内置模块" style="whiteSpace=wrap;strokeWidth=2;" vertex="1" parent="1">
          <mxGeometry x="3092" y="80" width="124" height="54" as="geometry" />
        </mxCell>
        <mxCell id="az1jpNIogjLivmSvD074-34" value="自定义模块" style="whiteSpace=wrap;strokeWidth=2;" vertex="1" parent="1">
          <mxGeometry x="3494" y="80" width="140" height="54" as="geometry" />
        </mxCell>
        <mxCell id="az1jpNIogjLivmSvD074-35" value="第三方模块" style="whiteSpace=wrap;strokeWidth=2;" vertex="1" parent="1">
          <mxGeometry x="3985" y="80" width="140" height="54" as="geometry" />
        </mxCell>
        <mxCell id="az1jpNIogjLivmSvD074-36" value="如前面提到的核心模块" style="whiteSpace=wrap;strokeWidth=2;" vertex="1" parent="1">
          <mxGeometry x="3044" y="208" width="220" height="54" as="geometry" />
        </mxCell>
        <mxCell id="az1jpNIogjLivmSvD074-37" value="exports与module.exports" style="whiteSpace=wrap;strokeWidth=2;" vertex="1" parent="1">
          <mxGeometry x="3314" y="208" width="241" height="54" as="geometry" />
        </mxCell>
        <mxCell id="az1jpNIogjLivmSvD074-38" value="require引入模块" style="whiteSpace=wrap;strokeWidth=2;" vertex="1" parent="1">
          <mxGeometry x="3605" y="208" width="176" height="54" as="geometry" />
        </mxCell>
        <mxCell id="az1jpNIogjLivmSvD074-39" value="npm/yarn包管理" style="whiteSpace=wrap;strokeWidth=2;" vertex="1" parent="1">
          <mxGeometry x="3831" y="208" width="179" height="54" as="geometry" />
        </mxCell>
        <mxCell id="az1jpNIogjLivmSvD074-40" value="常用包：express、mongoose等" style="whiteSpace=wrap;strokeWidth=2;" vertex="1" parent="1">
          <mxGeometry x="4060" y="196" width="260" height="78" as="geometry" />
        </mxCell>
        <mxCell id="az1jpNIogjLivmSvD074-41" value="Express" style="whiteSpace=wrap;strokeWidth=2;" vertex="1" parent="1">
          <mxGeometry x="4458" y="80" width="113" height="54" as="geometry" />
        </mxCell>
        <mxCell id="az1jpNIogjLivmSvD074-42" value="Koa" style="whiteSpace=wrap;strokeWidth=2;" vertex="1" parent="1">
          <mxGeometry x="4812" y="80" width="86" height="54" as="geometry" />
        </mxCell>
        <mxCell id="az1jpNIogjLivmSvD074-43" value="Electron" style="whiteSpace=wrap;strokeWidth=2;" vertex="1" parent="1">
          <mxGeometry x="5231" y="80" width="120" height="54" as="geometry" />
        </mxCell>
        <mxCell id="az1jpNIogjLivmSvD074-44" value="路由系统" style="whiteSpace=wrap;strokeWidth=2;" vertex="1" parent="1">
          <mxGeometry x="4370" y="208" width="124" height="54" as="geometry" />
        </mxCell>
        <mxCell id="az1jpNIogjLivmSvD074-45" value="中间件" style="whiteSpace=wrap;strokeWidth=2;" vertex="1" parent="1">
          <mxGeometry x="4544" y="208" width="108" height="54" as="geometry" />
        </mxCell>
        <mxCell id="az1jpNIogjLivmSvD074-46" value="洋葱模型" style="whiteSpace=wrap;strokeWidth=2;" vertex="1" parent="1">
          <mxGeometry x="4702" y="208" width="124" height="54" as="geometry" />
        </mxCell>
        <mxCell id="az1jpNIogjLivmSvD074-47" value="异步中间件" style="whiteSpace=wrap;strokeWidth=2;" vertex="1" parent="1">
          <mxGeometry x="4876" y="208" width="140" height="54" as="geometry" />
        </mxCell>
        <mxCell id="az1jpNIogjLivmSvD074-48" value="构建跨平台桌面应用" style="whiteSpace=wrap;strokeWidth=2;" vertex="1" parent="1">
          <mxGeometry x="5066" y="208" width="204" height="54" as="geometry" />
        </mxCell>
        <mxCell id="az1jpNIogjLivmSvD074-49" value="主进程与渲染进程" style="whiteSpace=wrap;strokeWidth=2;" vertex="1" parent="1">
          <mxGeometry x="5320" y="208" width="188" height="54" as="geometry" />
        </mxCell>
        <mxCell id="az1jpNIogjLivmSvD074-50" value="集群(cluster)模块" style="whiteSpace=wrap;strokeWidth=2;" vertex="1" parent="1">
          <mxGeometry x="5572" y="80" width="124" height="54" as="geometry" />
        </mxCell>
        <mxCell id="az1jpNIogjLivmSvD074-51" value="缓存策略" style="whiteSpace=wrap;strokeWidth=2;" vertex="1" parent="1">
          <mxGeometry x="5848" y="80" width="124" height="54" as="geometry" />
        </mxCell>
        <mxCell id="az1jpNIogjLivmSvD074-52" value="异步操作优化" style="whiteSpace=wrap;strokeWidth=2;" vertex="1" parent="1">
          <mxGeometry x="6101" y="80" width="156" height="54" as="geometry" />
        </mxCell>
        <mxCell id="az1jpNIogjLivmSvD074-53" value="利用多核CPU" style="whiteSpace=wrap;strokeWidth=2;" vertex="1" parent="1">
          <mxGeometry x="5558" y="208" width="153" height="54" as="geometry" />
        </mxCell>
        <mxCell id="az1jpNIogjLivmSvD074-54" value="内存缓存" style="whiteSpace=wrap;strokeWidth=2;" vertex="1" parent="1">
          <mxGeometry x="5761" y="208" width="124" height="54" as="geometry" />
        </mxCell>
        <mxCell id="az1jpNIogjLivmSvD074-55" value="磁盘缓存" style="whiteSpace=wrap;strokeWidth=2;" vertex="1" parent="1">
          <mxGeometry x="5935" y="208" width="124" height="54" as="geometry" />
        </mxCell>
        <mxCell id="az1jpNIogjLivmSvD074-56" value="避免阻塞" style="whiteSpace=wrap;strokeWidth=2;" vertex="1" parent="1">
          <mxGeometry x="6117" y="208" width="124" height="54" as="geometry" />
        </mxCell>
        <mxCell id="az1jpNIogjLivmSvD074-57" value="PM2" style="whiteSpace=wrap;strokeWidth=2;" vertex="1" parent="1">
          <mxGeometry x="6395" y="80" width="89" height="54" as="geometry" />
        </mxCell>
        <mxCell id="az1jpNIogjLivmSvD074-58" value="Docker" style="whiteSpace=wrap;strokeWidth=2;" vertex="1" parent="1">
          <mxGeometry x="6755" y="80" width="109" height="54" as="geometry" />
        </mxCell>
        <mxCell id="az1jpNIogjLivmSvD074-59" value="进程管理" style="whiteSpace=wrap;strokeWidth=2;" vertex="1" parent="1">
          <mxGeometry x="6291" y="208" width="124" height="54" as="geometry" />
        </mxCell>
        <mxCell id="az1jpNIogjLivmSvD074-60" value="日志查看" style="whiteSpace=wrap;strokeWidth=2;" vertex="1" parent="1">
          <mxGeometry x="6465" y="208" width="124" height="54" as="geometry" />
        </mxCell>
        <mxCell id="az1jpNIogjLivmSvD074-61" value="容器化部署" style="whiteSpace=wrap;strokeWidth=2;" vertex="1" parent="1">
          <mxGeometry x="6639" y="208" width="140" height="54" as="geometry" />
        </mxCell>
        <mxCell id="az1jpNIogjLivmSvD074-62" value="Dockerfile编写" style="whiteSpace=wrap;strokeWidth=2;" vertex="1" parent="1">
          <mxGeometry x="6829" y="208" width="165" height="54" as="geometry" />
        </mxCell>
        <mxCell id="az1jpNIogjLivmSvD074-63" value="SQL注入防范" style="whiteSpace=wrap;strokeWidth=2;" vertex="1" parent="1">
          <mxGeometry x="7039" y="80" width="151" height="54" as="geometry" />
        </mxCell>
        <mxCell id="az1jpNIogjLivmSvD074-64" value="跨站脚本攻击(XSS)防范" style="whiteSpace=wrap;strokeWidth=2;" vertex="1" parent="1">
          <mxGeometry x="7242" y="80" width="188" height="54" as="geometry" />
        </mxCell>
        <mxCell id="az1jpNIogjLivmSvD074-65" value="跨站请求伪造(CSRF)防范" style="whiteSpace=wrap;strokeWidth=2;" vertex="1" parent="1">
          <mxGeometry x="7480" y="80" width="188" height="54" as="geometry" />
        </mxCell>
        <mxCell id="az1jpNIogjLivmSvD074-66" value="参数化查询" style="whiteSpace=wrap;strokeWidth=2;" vertex="1" parent="1">
          <mxGeometry x="7044" y="208" width="140" height="54" as="geometry" />
        </mxCell>
        <mxCell id="az1jpNIogjLivmSvD074-67" value="输入验证与输出编码" style="whiteSpace=wrap;strokeWidth=2;" vertex="1" parent="1">
          <mxGeometry x="7234" y="208" width="204" height="54" as="geometry" />
        </mxCell>
        <mxCell id="az1jpNIogjLivmSvD074-68" value="令牌验证" style="whiteSpace=wrap;strokeWidth=2;" vertex="1" parent="1">
          <mxGeometry x="7512" y="208" width="124" height="54" as="geometry" />
        </mxCell>
        <mxCell id="az1jpNIogjLivmSvD074-69" value="" style="curved=1;startArrow=none;endArrow=block;exitX=0;exitY=0.51;entryX=0.5;entryY=0;rounded=0;" edge="1" parent="1" source="az1jpNIogjLivmSvD074-1" target="az1jpNIogjLivmSvD074-2">
          <mxGeometry relative="1" as="geometry">
            <Array as="points">
              <mxPoint x="-148" y="-61" />
            </Array>
          </mxGeometry>
        </mxCell>
        <mxCell id="az1jpNIogjLivmSvD074-70" value="" style="curved=1;startArrow=none;endArrow=block;exitX=0;exitY=0.52;entryX=0.5;entryY=0;rounded=0;" edge="1" parent="1" source="az1jpNIogjLivmSvD074-1" target="az1jpNIogjLivmSvD074-3">
          <mxGeometry relative="1" as="geometry">
            <Array as="points">
              <mxPoint x="937" y="-61" />
            </Array>
          </mxGeometry>
        </mxCell>
        <mxCell id="az1jpNIogjLivmSvD074-71" value="" style="curved=1;startArrow=none;endArrow=block;exitX=0;exitY=0.53;entryX=0.5;entryY=0;rounded=0;" edge="1" parent="1" source="az1jpNIogjLivmSvD074-1" target="az1jpNIogjLivmSvD074-4">
          <mxGeometry relative="1" as="geometry">
            <Array as="points">
              <mxPoint x="2217" y="-61" />
            </Array>
          </mxGeometry>
        </mxCell>
        <mxCell id="az1jpNIogjLivmSvD074-72" value="" style="curved=1;startArrow=none;endArrow=block;exitX=0;exitY=0.59;entryX=0.5;entryY=0;rounded=0;" edge="1" parent="1" source="az1jpNIogjLivmSvD074-1" target="az1jpNIogjLivmSvD074-5">
          <mxGeometry relative="1" as="geometry">
            <Array as="points">
              <mxPoint x="3564" y="-61" />
            </Array>
          </mxGeometry>
        </mxCell>
        <mxCell id="az1jpNIogjLivmSvD074-73" value="" style="curved=1;startArrow=none;endArrow=block;exitX=0.99;exitY=0.58;entryX=0.5;entryY=0;rounded=0;" edge="1" parent="1" source="az1jpNIogjLivmSvD074-1" target="az1jpNIogjLivmSvD074-6">
          <mxGeometry relative="1" as="geometry">
            <Array as="points">
              <mxPoint x="4855" y="-61" />
            </Array>
          </mxGeometry>
        </mxCell>
        <mxCell id="az1jpNIogjLivmSvD074-74" value="" style="curved=1;startArrow=none;endArrow=block;exitX=0.99;exitY=0.53;entryX=0.5;entryY=0;rounded=0;" edge="1" parent="1" source="az1jpNIogjLivmSvD074-1" target="az1jpNIogjLivmSvD074-7">
          <mxGeometry relative="1" as="geometry">
            <Array as="points">
              <mxPoint x="5910" y="-61" />
            </Array>
          </mxGeometry>
        </mxCell>
        <mxCell id="az1jpNIogjLivmSvD074-75" value="" style="curved=1;startArrow=none;endArrow=block;exitX=0.99;exitY=0.52;entryX=0.5;entryY=0;rounded=0;" edge="1" parent="1" source="az1jpNIogjLivmSvD074-1" target="az1jpNIogjLivmSvD074-8">
          <mxGeometry relative="1" as="geometry">
            <Array as="points">
              <mxPoint x="6632" y="-61" />
            </Array>
          </mxGeometry>
        </mxCell>
        <mxCell id="az1jpNIogjLivmSvD074-76" value="" style="curved=1;startArrow=none;endArrow=block;exitX=0.99;exitY=0.52;entryX=0.5;entryY=0;rounded=0;" edge="1" parent="1" source="az1jpNIogjLivmSvD074-1" target="az1jpNIogjLivmSvD074-9">
          <mxGeometry relative="1" as="geometry">
            <Array as="points">
              <mxPoint x="7336" y="-61" />
            </Array>
          </mxGeometry>
        </mxCell>
        <mxCell id="az1jpNIogjLivmSvD074-77" value="" style="curved=1;startArrow=none;endArrow=block;exitX=0;exitY=0.7;entryX=0.5;entryY=0;rounded=0;" edge="1" parent="1" source="az1jpNIogjLivmSvD074-2" target="az1jpNIogjLivmSvD074-10">
          <mxGeometry relative="1" as="geometry">
            <Array as="points">
              <mxPoint x="-450" y="43" />
            </Array>
          </mxGeometry>
        </mxCell>
        <mxCell id="az1jpNIogjLivmSvD074-78" value="" style="curved=1;startArrow=none;endArrow=block;exitX=0.5;exitY=1;entryX=0.5;entryY=0;rounded=0;" edge="1" parent="1" source="az1jpNIogjLivmSvD074-2" target="az1jpNIogjLivmSvD074-11">
          <mxGeometry relative="1" as="geometry">
            <Array as="points" />
          </mxGeometry>
        </mxCell>
        <mxCell id="az1jpNIogjLivmSvD074-79" value="" style="curved=1;startArrow=none;endArrow=block;exitX=1;exitY=0.72;entryX=0.5;entryY=0;rounded=0;" edge="1" parent="1" source="az1jpNIogjLivmSvD074-2" target="az1jpNIogjLivmSvD074-12">
          <mxGeometry relative="1" as="geometry">
            <Array as="points">
              <mxPoint x="126" y="43" />
            </Array>
          </mxGeometry>
        </mxCell>
        <mxCell id="az1jpNIogjLivmSvD074-80" value="" style="curved=1;startArrow=none;endArrow=block;exitX=0;exitY=0.6;entryX=0.5;entryY=0;rounded=0;" edge="1" parent="1" source="az1jpNIogjLivmSvD074-3" target="az1jpNIogjLivmSvD074-13">
          <mxGeometry relative="1" as="geometry">
            <Array as="points">
              <mxPoint x="327" y="43" />
            </Array>
          </mxGeometry>
        </mxCell>
        <mxCell id="az1jpNIogjLivmSvD074-81" value="" style="curved=1;startArrow=none;endArrow=block;exitX=0;exitY=0.82;entryX=0.49;entryY=0;rounded=0;" edge="1" parent="1" source="az1jpNIogjLivmSvD074-3" target="az1jpNIogjLivmSvD074-14">
          <mxGeometry relative="1" as="geometry">
            <Array as="points">
              <mxPoint x="751" y="43" />
            </Array>
          </mxGeometry>
        </mxCell>
        <mxCell id="az1jpNIogjLivmSvD074-82" value="" style="curved=1;startArrow=none;endArrow=block;exitX=1;exitY=0.82;entryX=0.5;entryY=0;rounded=0;" edge="1" parent="1" source="az1jpNIogjLivmSvD074-3" target="az1jpNIogjLivmSvD074-15">
          <mxGeometry relative="1" as="geometry">
            <Array as="points">
              <mxPoint x="1123" y="43" />
            </Array>
          </mxGeometry>
        </mxCell>
        <mxCell id="az1jpNIogjLivmSvD074-83" value="" style="curved=1;startArrow=none;endArrow=block;exitX=1;exitY=0.6;entryX=0.5;entryY=0;rounded=0;" edge="1" parent="1" source="az1jpNIogjLivmSvD074-3" target="az1jpNIogjLivmSvD074-16">
          <mxGeometry relative="1" as="geometry">
            <Array as="points">
              <mxPoint x="1523" y="43" />
            </Array>
          </mxGeometry>
        </mxCell>
        <mxCell id="az1jpNIogjLivmSvD074-84" value="" style="curved=1;startArrow=none;endArrow=block;exitX=0.05;exitY=1;entryX=0.5;entryY=0;rounded=0;" edge="1" parent="1" source="az1jpNIogjLivmSvD074-13" target="az1jpNIogjLivmSvD074-17">
          <mxGeometry relative="1" as="geometry">
            <Array as="points">
              <mxPoint x="224" y="171" />
            </Array>
          </mxGeometry>
        </mxCell>
        <mxCell id="az1jpNIogjLivmSvD074-85" value="" style="curved=1;startArrow=none;endArrow=block;exitX=0.94;exitY=1;entryX=0.5;entryY=0;rounded=0;" edge="1" parent="1" source="az1jpNIogjLivmSvD074-13" target="az1jpNIogjLivmSvD074-18">
          <mxGeometry relative="1" as="geometry">
            <Array as="points">
              <mxPoint x="430" y="171" />
            </Array>
          </mxGeometry>
        </mxCell>
        <mxCell id="az1jpNIogjLivmSvD074-86" value="" style="curved=1;startArrow=none;endArrow=block;exitX=-0.01;exitY=0.96;entryX=0.5;entryY=0;rounded=0;" edge="1" parent="1" source="az1jpNIogjLivmSvD074-14" target="az1jpNIogjLivmSvD074-19">
          <mxGeometry relative="1" as="geometry">
            <Array as="points">
              <mxPoint x="652" y="171" />
            </Array>
          </mxGeometry>
        </mxCell>
        <mxCell id="az1jpNIogjLivmSvD074-87" value="" style="curved=1;startArrow=none;endArrow=block;exitX=1;exitY=0.96;entryX=0.5;entryY=0;rounded=0;" edge="1" parent="1" source="az1jpNIogjLivmSvD074-14" target="az1jpNIogjLivmSvD074-20">
          <mxGeometry relative="1" as="geometry">
            <Array as="points">
              <mxPoint x="850" y="171" />
            </Array>
          </mxGeometry>
        </mxCell>
        <mxCell id="az1jpNIogjLivmSvD074-88" value="" style="curved=1;startArrow=none;endArrow=block;exitX=0.04;exitY=1;entryX=0.5;entryY=0;rounded=0;" edge="1" parent="1" source="az1jpNIogjLivmSvD074-15" target="az1jpNIogjLivmSvD074-21">
          <mxGeometry relative="1" as="geometry">
            <Array as="points">
              <mxPoint x="1024" y="171" />
            </Array>
          </mxGeometry>
        </mxCell>
        <mxCell id="az1jpNIogjLivmSvD074-89" value="" style="curved=1;startArrow=none;endArrow=block;exitX=0.95;exitY=1;entryX=0.5;entryY=0;rounded=0;" edge="1" parent="1" source="az1jpNIogjLivmSvD074-15" target="az1jpNIogjLivmSvD074-22">
          <mxGeometry relative="1" as="geometry">
            <Array as="points">
              <mxPoint x="1222" y="171" />
            </Array>
          </mxGeometry>
        </mxCell>
        <mxCell id="az1jpNIogjLivmSvD074-90" value="" style="curved=1;startArrow=none;endArrow=block;exitX=0.13;exitY=1;entryX=0.5;entryY=0;rounded=0;" edge="1" parent="1" source="az1jpNIogjLivmSvD074-16" target="az1jpNIogjLivmSvD074-23">
          <mxGeometry relative="1" as="geometry">
            <Array as="points">
              <mxPoint x="1428" y="171" />
            </Array>
          </mxGeometry>
        </mxCell>
        <mxCell id="az1jpNIogjLivmSvD074-91" value="" style="curved=1;startArrow=none;endArrow=block;exitX=0.88;exitY=1;entryX=0.5;entryY=0;rounded=0;" edge="1" parent="1" source="az1jpNIogjLivmSvD074-16" target="az1jpNIogjLivmSvD074-24">
          <mxGeometry relative="1" as="geometry">
            <Array as="points">
              <mxPoint x="1618" y="171" />
            </Array>
          </mxGeometry>
        </mxCell>
        <mxCell id="az1jpNIogjLivmSvD074-92" value="" style="curved=1;startArrow=none;endArrow=block;exitX=0;exitY=0.65;entryX=0.5;entryY=0;rounded=0;" edge="1" parent="1" source="az1jpNIogjLivmSvD074-4" target="az1jpNIogjLivmSvD074-25">
          <mxGeometry relative="1" as="geometry">
            <Array as="points">
              <mxPoint x="1816" y="43" />
            </Array>
          </mxGeometry>
        </mxCell>
        <mxCell id="az1jpNIogjLivmSvD074-93" value="" style="curved=1;startArrow=none;endArrow=block;exitX=0.5;exitY=1;entryX=0.5;entryY=0;rounded=0;" edge="1" parent="1" source="az1jpNIogjLivmSvD074-4" target="az1jpNIogjLivmSvD074-26">
          <mxGeometry relative="1" as="geometry">
            <Array as="points" />
          </mxGeometry>
        </mxCell>
        <mxCell id="az1jpNIogjLivmSvD074-94" value="" style="curved=1;startArrow=none;endArrow=block;exitX=1;exitY=0.61;entryX=0.5;entryY=0;rounded=0;" edge="1" parent="1" source="az1jpNIogjLivmSvD074-4" target="az1jpNIogjLivmSvD074-27">
          <mxGeometry relative="1" as="geometry">
            <Array as="points">
              <mxPoint x="2750" y="43" />
            </Array>
          </mxGeometry>
        </mxCell>
        <mxCell id="az1jpNIogjLivmSvD074-95" value="" style="curved=1;startArrow=none;endArrow=block;exitX=0.5;exitY=1;entryX=0.5;entryY=0;rounded=0;" edge="1" parent="1" source="az1jpNIogjLivmSvD074-25" target="az1jpNIogjLivmSvD074-28">
          <mxGeometry relative="1" as="geometry">
            <Array as="points" />
          </mxGeometry>
        </mxCell>
        <mxCell id="az1jpNIogjLivmSvD074-96" value="" style="curved=1;startArrow=none;endArrow=block;exitX=0;exitY=0.98;entryX=0.5;entryY=0;rounded=0;" edge="1" parent="1" source="az1jpNIogjLivmSvD074-26" target="az1jpNIogjLivmSvD074-29">
          <mxGeometry relative="1" as="geometry">
            <Array as="points">
              <mxPoint x="2074" y="171" />
            </Array>
          </mxGeometry>
        </mxCell>
        <mxCell id="az1jpNIogjLivmSvD074-97" value="" style="curved=1;startArrow=none;endArrow=block;exitX=1;exitY=0.98;entryX=0.5;entryY=0;rounded=0;" edge="1" parent="1" source="az1jpNIogjLivmSvD074-26" target="az1jpNIogjLivmSvD074-30">
          <mxGeometry relative="1" as="geometry">
            <Array as="points">
              <mxPoint x="2360" y="171" />
            </Array>
          </mxGeometry>
        </mxCell>
        <mxCell id="az1jpNIogjLivmSvD074-98" value="" style="curved=1;startArrow=none;endArrow=block;exitX=0.13;exitY=1;entryX=0.5;entryY=0;rounded=0;" edge="1" parent="1" source="az1jpNIogjLivmSvD074-27" target="az1jpNIogjLivmSvD074-31">
          <mxGeometry relative="1" as="geometry">
            <Array as="points">
              <mxPoint x="2618" y="171" />
            </Array>
          </mxGeometry>
        </mxCell>
        <mxCell id="az1jpNIogjLivmSvD074-99" value="" style="curved=1;startArrow=none;endArrow=block;exitX=0.87;exitY=1;entryX=0.5;entryY=0;rounded=0;" edge="1" parent="1" source="az1jpNIogjLivmSvD074-27" target="az1jpNIogjLivmSvD074-32">
          <mxGeometry relative="1" as="geometry">
            <Array as="points">
              <mxPoint x="2882" y="171" />
            </Array>
          </mxGeometry>
        </mxCell>
        <mxCell id="az1jpNIogjLivmSvD074-100" value="" style="curved=1;startArrow=none;endArrow=block;exitX=0;exitY=0.65;entryX=0.5;entryY=0;rounded=0;" edge="1" parent="1" source="az1jpNIogjLivmSvD074-5" target="az1jpNIogjLivmSvD074-33">
          <mxGeometry relative="1" as="geometry">
            <Array as="points">
              <mxPoint x="3154" y="43" />
            </Array>
          </mxGeometry>
        </mxCell>
        <mxCell id="az1jpNIogjLivmSvD074-101" value="" style="curved=1;startArrow=none;endArrow=block;exitX=0.5;exitY=1;entryX=0.5;entryY=0;rounded=0;" edge="1" parent="1" source="az1jpNIogjLivmSvD074-5" target="az1jpNIogjLivmSvD074-34">
          <mxGeometry relative="1" as="geometry">
            <Array as="points" />
          </mxGeometry>
        </mxCell>
        <mxCell id="az1jpNIogjLivmSvD074-102" value="" style="curved=1;startArrow=none;endArrow=block;exitX=1;exitY=0.62;entryX=0.5;entryY=0;rounded=0;" edge="1" parent="1" source="az1jpNIogjLivmSvD074-5" target="az1jpNIogjLivmSvD074-35">
          <mxGeometry relative="1" as="geometry">
            <Array as="points">
              <mxPoint x="4055" y="43" />
            </Array>
          </mxGeometry>
        </mxCell>
        <mxCell id="az1jpNIogjLivmSvD074-103" value="" style="curved=1;startArrow=none;endArrow=block;exitX=0.5;exitY=1;entryX=0.5;entryY=0;rounded=0;" edge="1" parent="1" source="az1jpNIogjLivmSvD074-33" target="az1jpNIogjLivmSvD074-36">
          <mxGeometry relative="1" as="geometry">
            <Array as="points" />
          </mxGeometry>
        </mxCell>
        <mxCell id="az1jpNIogjLivmSvD074-104" value="" style="curved=1;startArrow=none;endArrow=block;exitX=0.11;exitY=1;entryX=0.5;entryY=0;rounded=0;" edge="1" parent="1" source="az1jpNIogjLivmSvD074-34" target="az1jpNIogjLivmSvD074-37">
          <mxGeometry relative="1" as="geometry">
            <Array as="points">
              <mxPoint x="3434" y="171" />
            </Array>
          </mxGeometry>
        </mxCell>
        <mxCell id="az1jpNIogjLivmSvD074-105" value="" style="curved=1;startArrow=none;endArrow=block;exitX=0.89;exitY=1;entryX=0.5;entryY=0;rounded=0;" edge="1" parent="1" source="az1jpNIogjLivmSvD074-34" target="az1jpNIogjLivmSvD074-38">
          <mxGeometry relative="1" as="geometry">
            <Array as="points">
              <mxPoint x="3693" y="171" />
            </Array>
          </mxGeometry>
        </mxCell>
        <mxCell id="az1jpNIogjLivmSvD074-106" value="" style="curved=1;startArrow=none;endArrow=block;exitX=0.1;exitY=1;entryX=0.5;entryY=0;rounded=0;" edge="1" parent="1" source="az1jpNIogjLivmSvD074-35" target="az1jpNIogjLivmSvD074-39">
          <mxGeometry relative="1" as="geometry">
            <Array as="points">
              <mxPoint x="3921" y="171" />
            </Array>
          </mxGeometry>
        </mxCell>
        <mxCell id="az1jpNIogjLivmSvD074-107" value="" style="curved=1;startArrow=none;endArrow=block;exitX=0.91;exitY=1;entryX=0.5;entryY=0;rounded=0;" edge="1" parent="1" source="az1jpNIogjLivmSvD074-35" target="az1jpNIogjLivmSvD074-40">
          <mxGeometry relative="1" as="geometry">
            <Array as="points">
              <mxPoint x="4190" y="171" />
            </Array>
          </mxGeometry>
        </mxCell>
        <mxCell id="az1jpNIogjLivmSvD074-108" value="" style="curved=1;startArrow=none;endArrow=block;exitX=0;exitY=0.7;entryX=0.5;entryY=0;rounded=0;" edge="1" parent="1" source="az1jpNIogjLivmSvD074-6" target="az1jpNIogjLivmSvD074-41">
          <mxGeometry relative="1" as="geometry">
            <Array as="points">
              <mxPoint x="4515" y="43" />
            </Array>
          </mxGeometry>
        </mxCell>
        <mxCell id="az1jpNIogjLivmSvD074-109" value="" style="curved=1;startArrow=none;endArrow=block;exitX=0.5;exitY=1;entryX=0.5;entryY=0;rounded=0;" edge="1" parent="1" source="az1jpNIogjLivmSvD074-6" target="az1jpNIogjLivmSvD074-42">
          <mxGeometry relative="1" as="geometry">
            <Array as="points" />
          </mxGeometry>
        </mxCell>
        <mxCell id="az1jpNIogjLivmSvD074-110" value="" style="curved=1;startArrow=none;endArrow=block;exitX=1;exitY=0.65;entryX=0.5;entryY=0;rounded=0;" edge="1" parent="1" source="az1jpNIogjLivmSvD074-6" target="az1jpNIogjLivmSvD074-43">
          <mxGeometry relative="1" as="geometry">
            <Array as="points">
              <mxPoint x="5291" y="43" />
            </Array>
          </mxGeometry>
        </mxCell>
        <mxCell id="az1jpNIogjLivmSvD074-111" value="" style="curved=1;startArrow=none;endArrow=block;exitX=0.19;exitY=1;entryX=0.5;entryY=0;rounded=0;" edge="1" parent="1" source="az1jpNIogjLivmSvD074-41" target="az1jpNIogjLivmSvD074-44">
          <mxGeometry relative="1" as="geometry">
            <Array as="points">
              <mxPoint x="4432" y="171" />
            </Array>
          </mxGeometry>
        </mxCell>
        <mxCell id="az1jpNIogjLivmSvD074-112" value="" style="curved=1;startArrow=none;endArrow=block;exitX=0.81;exitY=1;entryX=0.5;entryY=0;rounded=0;" edge="1" parent="1" source="az1jpNIogjLivmSvD074-41" target="az1jpNIogjLivmSvD074-45">
          <mxGeometry relative="1" as="geometry">
            <Array as="points">
              <mxPoint x="4598" y="171" />
            </Array>
          </mxGeometry>
        </mxCell>
        <mxCell id="az1jpNIogjLivmSvD074-113" value="" style="curved=1;startArrow=none;endArrow=block;exitX=0.05;exitY=1;entryX=0.5;entryY=0;rounded=0;" edge="1" parent="1" source="az1jpNIogjLivmSvD074-42" target="az1jpNIogjLivmSvD074-46">
          <mxGeometry relative="1" as="geometry">
            <Array as="points">
              <mxPoint x="4764" y="171" />
            </Array>
          </mxGeometry>
        </mxCell>
        <mxCell id="az1jpNIogjLivmSvD074-114" value="" style="curved=1;startArrow=none;endArrow=block;exitX=0.94;exitY=1;entryX=0.5;entryY=0;rounded=0;" edge="1" parent="1" source="az1jpNIogjLivmSvD074-42" target="az1jpNIogjLivmSvD074-47">
          <mxGeometry relative="1" as="geometry">
            <Array as="points">
              <mxPoint x="4946" y="171" />
            </Array>
          </mxGeometry>
        </mxCell>
        <mxCell id="az1jpNIogjLivmSvD074-115" value="" style="curved=1;startArrow=none;endArrow=block;exitX=0.07;exitY=1;entryX=0.5;entryY=0;rounded=0;" edge="1" parent="1" source="az1jpNIogjLivmSvD074-43" target="az1jpNIogjLivmSvD074-48">
          <mxGeometry relative="1" as="geometry">
            <Array as="points">
              <mxPoint x="5168" y="171" />
            </Array>
          </mxGeometry>
        </mxCell>
        <mxCell id="az1jpNIogjLivmSvD074-116" value="" style="curved=1;startArrow=none;endArrow=block;exitX=0.93;exitY=1;entryX=0.5;entryY=0;rounded=0;" edge="1" parent="1" source="az1jpNIogjLivmSvD074-43" target="az1jpNIogjLivmSvD074-49">
          <mxGeometry relative="1" as="geometry">
            <Array as="points">
              <mxPoint x="5414" y="171" />
            </Array>
          </mxGeometry>
        </mxCell>
        <mxCell id="az1jpNIogjLivmSvD074-117" value="" style="curved=1;startArrow=none;endArrow=block;exitX=0;exitY=0.72;entryX=0.5;entryY=0;rounded=0;" edge="1" parent="1" source="az1jpNIogjLivmSvD074-7" target="az1jpNIogjLivmSvD074-50">
          <mxGeometry relative="1" as="geometry">
            <Array as="points">
              <mxPoint x="5634" y="43" />
            </Array>
          </mxGeometry>
        </mxCell>
        <mxCell id="az1jpNIogjLivmSvD074-118" value="" style="curved=1;startArrow=none;endArrow=block;exitX=0.5;exitY=1;entryX=0.5;entryY=0;rounded=0;" edge="1" parent="1" source="az1jpNIogjLivmSvD074-7" target="az1jpNIogjLivmSvD074-51">
          <mxGeometry relative="1" as="geometry">
            <Array as="points" />
          </mxGeometry>
        </mxCell>
        <mxCell id="az1jpNIogjLivmSvD074-119" value="" style="curved=1;startArrow=none;endArrow=block;exitX=1;exitY=0.72;entryX=0.5;entryY=0;rounded=0;" edge="1" parent="1" source="az1jpNIogjLivmSvD074-7" target="az1jpNIogjLivmSvD074-52">
          <mxGeometry relative="1" as="geometry">
            <Array as="points">
              <mxPoint x="6179" y="43" />
            </Array>
          </mxGeometry>
        </mxCell>
        <mxCell id="az1jpNIogjLivmSvD074-120" value="" style="curved=1;startArrow=none;endArrow=block;exitX=0.5;exitY=1;entryX=0.5;entryY=0;rounded=0;" edge="1" parent="1" source="az1jpNIogjLivmSvD074-50" target="az1jpNIogjLivmSvD074-53">
          <mxGeometry relative="1" as="geometry">
            <Array as="points" />
          </mxGeometry>
        </mxCell>
        <mxCell id="az1jpNIogjLivmSvD074-121" value="" style="curved=1;startArrow=none;endArrow=block;exitX=0.2;exitY=1;entryX=0.5;entryY=0;rounded=0;" edge="1" parent="1" source="az1jpNIogjLivmSvD074-51" target="az1jpNIogjLivmSvD074-54">
          <mxGeometry relative="1" as="geometry">
            <Array as="points">
              <mxPoint x="5823" y="171" />
            </Array>
          </mxGeometry>
        </mxCell>
        <mxCell id="az1jpNIogjLivmSvD074-122" value="" style="curved=1;startArrow=none;endArrow=block;exitX=0.79;exitY=1;entryX=0.5;entryY=0;rounded=0;" edge="1" parent="1" source="az1jpNIogjLivmSvD074-51" target="az1jpNIogjLivmSvD074-55">
          <mxGeometry relative="1" as="geometry">
            <Array as="points">
              <mxPoint x="5997" y="171" />
            </Array>
          </mxGeometry>
        </mxCell>
        <mxCell id="az1jpNIogjLivmSvD074-123" value="" style="curved=1;startArrow=none;endArrow=block;exitX=0.5;exitY=1;entryX=0.5;entryY=0;rounded=0;" edge="1" parent="1" source="az1jpNIogjLivmSvD074-52" target="az1jpNIogjLivmSvD074-56">
          <mxGeometry relative="1" as="geometry">
            <Array as="points" />
          </mxGeometry>
        </mxCell>
        <mxCell id="az1jpNIogjLivmSvD074-124" value="" style="curved=1;startArrow=none;endArrow=block;exitX=0;exitY=0.73;entryX=0.5;entryY=0;rounded=0;" edge="1" parent="1" source="az1jpNIogjLivmSvD074-8" target="az1jpNIogjLivmSvD074-57">
          <mxGeometry relative="1" as="geometry">
            <Array as="points">
              <mxPoint x="6440" y="43" />
            </Array>
          </mxGeometry>
        </mxCell>
        <mxCell id="az1jpNIogjLivmSvD074-125" value="" style="curved=1;startArrow=none;endArrow=block;exitX=1;exitY=0.75;entryX=0.5;entryY=0;rounded=0;" edge="1" parent="1" source="az1jpNIogjLivmSvD074-8" target="az1jpNIogjLivmSvD074-58">
          <mxGeometry relative="1" as="geometry">
            <Array as="points">
              <mxPoint x="6810" y="43" />
            </Array>
          </mxGeometry>
        </mxCell>
        <mxCell id="az1jpNIogjLivmSvD074-126" value="" style="curved=1;startArrow=none;endArrow=block;exitX=0.09;exitY=1;entryX=0.5;entryY=0;rounded=0;" edge="1" parent="1" source="az1jpNIogjLivmSvD074-57" target="az1jpNIogjLivmSvD074-59">
          <mxGeometry relative="1" as="geometry">
            <Array as="points">
              <mxPoint x="6353" y="171" />
            </Array>
          </mxGeometry>
        </mxCell>
        <mxCell id="az1jpNIogjLivmSvD074-127" value="" style="curved=1;startArrow=none;endArrow=block;exitX=0.91;exitY=1;entryX=0.5;entryY=0;rounded=0;" edge="1" parent="1" source="az1jpNIogjLivmSvD074-57" target="az1jpNIogjLivmSvD074-60">
          <mxGeometry relative="1" as="geometry">
            <Array as="points">
              <mxPoint x="6527" y="171" />
            </Array>
          </mxGeometry>
        </mxCell>
        <mxCell id="az1jpNIogjLivmSvD074-128" value="" style="curved=1;startArrow=none;endArrow=block;exitX=0.11;exitY=1;entryX=0.5;entryY=0;rounded=0;" edge="1" parent="1" source="az1jpNIogjLivmSvD074-58" target="az1jpNIogjLivmSvD074-61">
          <mxGeometry relative="1" as="geometry">
            <Array as="points">
              <mxPoint x="6709" y="171" />
            </Array>
          </mxGeometry>
        </mxCell>
        <mxCell id="az1jpNIogjLivmSvD074-129" value="" style="curved=1;startArrow=none;endArrow=block;exitX=0.9;exitY=1;entryX=0.5;entryY=0;rounded=0;" edge="1" parent="1" source="az1jpNIogjLivmSvD074-58" target="az1jpNIogjLivmSvD074-62">
          <mxGeometry relative="1" as="geometry">
            <Array as="points">
              <mxPoint x="6911" y="171" />
            </Array>
          </mxGeometry>
        </mxCell>
        <mxCell id="az1jpNIogjLivmSvD074-130" value="" style="curved=1;startArrow=none;endArrow=block;exitX=0;exitY=0.7;entryX=0.5;entryY=0;rounded=0;" edge="1" parent="1" source="az1jpNIogjLivmSvD074-9" target="az1jpNIogjLivmSvD074-63">
          <mxGeometry relative="1" as="geometry">
            <Array as="points">
              <mxPoint x="7114" y="43" />
            </Array>
          </mxGeometry>
        </mxCell>
        <mxCell id="az1jpNIogjLivmSvD074-131" value="" style="curved=1;startArrow=none;endArrow=block;exitX=0.5;exitY=1;entryX=0.5;entryY=0;rounded=0;" edge="1" parent="1" source="az1jpNIogjLivmSvD074-9" target="az1jpNIogjLivmSvD074-64">
          <mxGeometry relative="1" as="geometry">
            <Array as="points" />
          </mxGeometry>
        </mxCell>
        <mxCell id="az1jpNIogjLivmSvD074-132" value="" style="curved=1;startArrow=none;endArrow=block;exitX=1;exitY=0.69;entryX=0.5;entryY=0;rounded=0;" edge="1" parent="1" source="az1jpNIogjLivmSvD074-9" target="az1jpNIogjLivmSvD074-65">
          <mxGeometry relative="1" as="geometry">
            <Array as="points">
              <mxPoint x="7574" y="43" />
            </Array>
          </mxGeometry>
        </mxCell>
        <mxCell id="az1jpNIogjLivmSvD074-133" value="" style="curved=1;startArrow=none;endArrow=block;exitX=0.5;exitY=1;entryX=0.5;entryY=0;rounded=0;" edge="1" parent="1" source="az1jpNIogjLivmSvD074-63" target="az1jpNIogjLivmSvD074-66">
          <mxGeometry relative="1" as="geometry">
            <Array as="points" />
          </mxGeometry>
        </mxCell>
        <mxCell id="az1jpNIogjLivmSvD074-134" value="" style="curved=1;startArrow=none;endArrow=block;exitX=0.5;exitY=1;entryX=0.5;entryY=0;rounded=0;" edge="1" parent="1" source="az1jpNIogjLivmSvD074-64" target="az1jpNIogjLivmSvD074-67">
          <mxGeometry relative="1" as="geometry">
            <Array as="points" />
          </mxGeometry>
        </mxCell>
        <mxCell id="az1jpNIogjLivmSvD074-135" value="" style="curved=1;startArrow=none;endArrow=block;exitX=0.5;exitY=1;entryX=0.5;entryY=0;rounded=0;" edge="1" parent="1" source="az1jpNIogjLivmSvD074-65" target="az1jpNIogjLivmSvD074-68">
          <mxGeometry relative="1" as="geometry">
            <Array as="points" />
          </mxGeometry>
        </mxCell>
      </root>
    </mxGraphModel>
  </diagram>
</mxfile>
